<svg id="Layer_1" data-name="Layer 1" xmlns="http://www.w3.org/2000/svg" viewBox="0 0 224.58 66.98"><defs><style>.cls-1{fill:#196d71;}.cls-2{fill:#00c5c6;}.cls-3{fill:#bcbec0;}</style></defs><title>logo_2</title><g id="_Group_" data-name="&lt;Group&gt;"><g id="_Group_2" data-name="&lt;Group&gt;"><g id="_Group_3" data-name="&lt;Group&gt;"><path id="_Path_" data-name="&lt;Path&gt;" class="cls-1" d="M208.92,23.39l-8.81-2.2v1.07a7.42,7.42,0,0,1,2,6H202V29.3h0a1.86,1.86,0,0,0,1.46,1.85c2.12-.71,5.43-6.7,5.43-6.7Z"/><path id="_Path_2" data-name="&lt;Path&gt;" class="cls-1" d="M217.16,18.1l-4.7-.58h-.23a30.62,30.62,0,0,0-13.5.95l-2.92.2,0,1.07a.53.53,0,0,0,.58.62,27.33,27.33,0,0,1,16.05,2.86.51.51,0,0,0,.6-.08L217,19.54a.5.5,0,0,0,.14-.55Z"/><path id="_Path_3" data-name="&lt;Path&gt;" class="cls-1" d="M209.67,15.06a.77.77,0,0,0,.85-.68h0l0-1.2-1-.62-4.38-1.2a22.85,22.85,0,0,0-11.78-1.49l-.41,0-2.77.33v1.23h0a.91.91,0,0,0,0,.17l1.83,6.93a.78.78,0,0,0,1.14.49C195.52,17.65,202.16,14.36,209.67,15.06Z"/><path id="_Path_4" data-name="&lt;Path&gt;" class="cls-1" d="M209.54,28.92V27.81l-.38,0,0,0,0,0-.44,0-1,1.38v1.07l1.27-.46a1,1,0,0,0,.62-.76l0,0v-.16Z"/></g><path class="cls-2" d="M193.21,17.9c2.31-1.32,8.95-4.61,16.46-3.91a.78.78,0,0,0,.46-1.47c-4.61-2.46-12.6-5.67-19.43-3a.78.78,0,0,0-.46.93l1.83,6.93A.78.78,0,0,0,193.21,17.9Z"/><path class="cls-2" d="M200.11,21.19s2.9-1.63,8.81,2.2c0,0-3.31,6-5.43,6.7h0a1.87,1.87,0,0,1-1.44-2.16A7.53,7.53,0,0,0,200.11,21.19Z"/><path class="cls-2" d="M208,28.38a5.56,5.56,0,0,1,1.13-1.65h0l.32.77a1,1,0,0,1-.57,1.29l-1.27.46Z"/><path class="cls-2" d="M196.16,18.29a30.38,30.38,0,0,1,20.64-.71.53.53,0,0,1,.19.89l-3.92,3.61a.51.51,0,0,1-.6.08,27.33,27.33,0,0,0-16.05-2.86A.53.53,0,0,1,196.16,18.29Z"/></g></g><g id="_Group_4" data-name="&lt;Group&gt;"><path id="_Compound_Path_" data-name="&lt;Compound Path&gt;" class="cls-3" d="M8.65,26.7l0,.33c0,.92.17,2.44.31,4,.08,1,.16,1.94.3,3l.14,1.14.06.47-.2,2.14.81-2.14c.44-.75.74-1.28,1.63-2.83C13.2,30.22,14,28.7,14.84,27L15,26.7h3.38l-.31.58c-1.19,2.33-2.27,4.27-3.57,6.41S11.7,38,10.62,39.57l-.33.47h-3l-.11-.5c-.48-2.19-.81-4.08-1.06-6s-.53-4.47-.64-6.24l0-.64Z"/><path id="_Compound_Path_2" data-name="&lt;Compound Path&gt;" class="cls-3" d="M21.35,34a2.19,2.19,0,0,1,0,.5c0,2,1.28,3,3.61,3a9.25,9.25,0,0,0,3.94-.94l-.58,2.8a9.47,9.47,0,0,1-4.05.89c-3.75,0-5.94-2.11-5.94-5.71,0-4.69,3.05-8.13,7.18-8.13,3,0,4.86,1.72,4.86,4.58A12.8,12.8,0,0,1,30,34Zm5.91-2.3c0-.33,0-.52,0-.72a2,2,0,0,0-2.13-2.11c-1.53,0-2.69,1-3.27,2.83Z"/><path id="_Compound_Path_3" data-name="&lt;Compound Path&gt;" class="cls-3" d="M34.61,27.28a18.82,18.82,0,0,1,5.38-.8c3.1,0,4.88,1.22,4.88,3.44a10.88,10.88,0,0,1-.22,1.94L42.9,40H39.68l1.8-8.4a3.27,3.27,0,0,0,.17-1.11c0-1-.72-1.47-2.08-1.47a9.18,9.18,0,0,0-2.19.25L35.08,40H31.89Z"/><path id="_Compound_Path_4" data-name="&lt;Compound Path&gt;" class="cls-3" d="M48,27h2.27l.83-3.63H54L53.24,27h3.11l-.5,2.3H52.77l-1.36,6a12,12,0,0,0-.14,1.41c0,.73.5,1.06,1.55,1.06a4.43,4.43,0,0,0,1-.11l-.49,2.3a8.87,8.87,0,0,1-2.08.22c-2.14,0-3.36-.83-3.36-2.27a10,10,0,0,1,.33-2.25l1.44-6.38H47.5Z"/><path id="_Compound_Path_5" data-name="&lt;Compound Path&gt;" class="cls-3" d="M61.86,26.7,60.12,35A3.18,3.18,0,0,0,60,36c0,1.06.78,1.64,2.24,1.64A9.21,9.21,0,0,0,64,37.41L66.3,26.7h3.19L66.77,39.54l-.5.11a19.74,19.74,0,0,1-4.43.53c-3.28,0-5.08-1.28-5.08-3.55a11.21,11.21,0,0,1,.22-2l1.7-7.93Z"/><path id="_Compound_Path_6" data-name="&lt;Compound Path&gt;" class="cls-3" d="M73.65,27.53a13.13,13.13,0,0,1,5-1.05A9.27,9.27,0,0,1,82,27l-.67,2.71a4.45,4.45,0,0,0-2.52-.66,5.09,5.09,0,0,0-2.36.52L74.17,40H71Z"/><path id="_Compound_Path_7" data-name="&lt;Compound Path&gt;" class="cls-3" d="M85.13,34a2.19,2.19,0,0,1,0,.5c0,2,1.28,3,3.61,3a9.18,9.18,0,0,0,3.93-.94l-.58,2.8a9.47,9.47,0,0,1-4,.89c-3.74,0-5.93-2.11-5.93-5.71,0-4.69,3-8.13,7.18-8.13,3,0,4.85,1.72,4.85,4.58a12.8,12.8,0,0,1-.39,3ZM91,31.69c0-.33,0-.52,0-.72A2,2,0,0,0,89,28.86c-1.53,0-2.69,1-3.28,2.83Z"/><path id="_Compound_Path_8" data-name="&lt;Compound Path&gt;" class="cls-3" d="M98.55,26.7h3.19L98.88,40H95.69Zm1.22-6.13h3.33l-.75,3.5H99Z"/><path id="_Compound_Path_9" data-name="&lt;Compound Path&gt;" class="cls-3" d="M105.87,27.28a18.82,18.82,0,0,1,5.38-.8c3.1,0,4.88,1.22,4.88,3.44a10,10,0,0,1-.22,1.94L114.16,40h-3.22l1.81-8.4a3.24,3.24,0,0,0,.16-1.11c0-1-.72-1.47-2.08-1.47a9.18,9.18,0,0,0-2.19.25L106.34,40h-3.19Z"/><path id="_Compound_Path_10" data-name="&lt;Compound Path&gt;" class="cls-3" d="M119.09,36.1h3.8L122,40h-3.77Z"/><path id="_Compound_Path_11" data-name="&lt;Compound Path&gt;" class="cls-3" d="M136.23,39.85a20.41,20.41,0,0,1-3.71.36c-4.05,0-6.08-1.7-6.08-5.08a8,8,0,0,1,4-6.93,11.74,11.74,0,0,1,6.26-1.53,19.91,19.91,0,0,1,2.53.17Zm-.69-10.6h-.33a5.43,5.43,0,0,0-5.55,5.69,2.56,2.56,0,0,0,2.88,2.85,5.14,5.14,0,0,0,1.09-.16Z"/><path id="_Compound_Path_12" data-name="&lt;Compound Path&gt;" class="cls-3" d="M141.53,27h2.16l.11-.5c.64-2.88,1.36-4.55,2.39-5.57a6.13,6.13,0,0,1,4.6-1.75,7,7,0,0,1,2,.28l-.67,2.49a3.7,3.7,0,0,0-1.22-.19c-2.14,0-3,1.08-3.88,4.69l-.11.55h3.33l-.5,2.3h-3.3l-.12.5c-.16.81-.36,1.75-.55,2.8l-.61,3.27c-.53,2.78-.78,3.91-1.22,5.83-.31,1.3-.5,2-.8,3.13l-.12.31h-3.13l.08-.34c.31-1,.59-2.08.81-3.1.16-.72.39-1.72.64-2.94l.33-1.72c.11-.58.16-.81.22-1.17l.61-3.27c.11-.55.19-1.13.31-1.69s.13-.78.22-1.16l.08-.45H141Z"/><path id="_Compound_Path_13" data-name="&lt;Compound Path&gt;" class="cls-3" d="M152.65,27.53a13.12,13.12,0,0,1,5-1.05A9.29,9.29,0,0,1,161,27l-.67,2.71a4.45,4.45,0,0,0-2.52-.66,5.06,5.06,0,0,0-2.36.52L153.17,40H150Z"/><path id="_Compound_Path_14" data-name="&lt;Compound Path&gt;" class="cls-3" d="M163.27,26.7h3.19L163.6,40h-3.19Zm1.22-6.13h3.32l-.75,3.5h-3.32Z"/><path id="_Compound_Path_15" data-name="&lt;Compound Path&gt;" class="cls-3" d="M179.35,29.86a5.33,5.33,0,0,0-2.83-.8,4.72,4.72,0,0,0-4.85,5.07c0,2.22,1.27,3.41,3.52,3.41a6.3,6.3,0,0,0,3.16-.83l-.58,2.91a7.52,7.52,0,0,1-3.27.67c-3.8,0-6.05-2.14-6.05-5.77a7.68,7.68,0,0,1,8-8,8,8,0,0,1,3.55.78Z"/><path id="_Compound_Path_16" data-name="&lt;Compound Path&gt;" class="cls-3" d="M190.27,39.85a20.33,20.33,0,0,1-3.71.36c-4.05,0-6.08-1.7-6.08-5.08a8,8,0,0,1,4-6.93,11.74,11.74,0,0,1,6.26-1.53,19.79,19.79,0,0,1,2.53.17Zm-.69-10.6h-.33a5.43,5.43,0,0,0-5.55,5.69,2.56,2.56,0,0,0,2.89,2.85,5.16,5.16,0,0,0,1.08-.16Z"/></g><g id="_Group_5" data-name="&lt;Group&gt;"><path id="_Compound_Path_17" data-name="&lt;Compound Path&gt;" class="cls-3" d="M8.23,48.42H9.66a1.37,1.37,0,0,1,1.24.71,1.39,1.39,0,0,1,.19.5,9,9,0,0,1,0,.9,6.27,6.27,0,0,1,0,.94.92.92,0,0,1-.06.25,2.25,2.25,0,0,1-.12.21,1.38,1.38,0,0,1-.5.49,1.36,1.36,0,0,1-.77.21H8.23ZM8.85,52h.74a.83.83,0,0,0,.76-.37.69.69,0,0,0,.13-.34c0-.14,0-.39,0-.77s0-.63,0-.79a.77.77,0,0,0-.16-.38A.83.83,0,0,0,9.59,49H8.85Z"/><path id="_Compound_Path_18" data-name="&lt;Compound Path&gt;" class="cls-3" d="M11.82,50.53a7.19,7.19,0,0,1,0-1,1.24,1.24,0,0,1,.14-.4,1.62,1.62,0,0,1,.47-.52,1.37,1.37,0,0,1,.8-.23,1.35,1.35,0,0,1,.82.24,1.41,1.41,0,0,1,.46.52.86.86,0,0,1,.14.4,11.9,11.9,0,0,1,0,2,.9.9,0,0,1-.14.41,1.38,1.38,0,0,1-.46.51,1.42,1.42,0,0,1-.82.25,1.38,1.38,0,0,1-.8-.25,1.38,1.38,0,0,1-.55-.69,1.09,1.09,0,0,1-.06-.23A6.94,6.94,0,0,1,11.82,50.53Zm.62,0a5.28,5.28,0,0,0,0,.84.79.79,0,0,0,.16.36.92.92,0,0,0,.26.21.72.72,0,0,0,.37.09.8.8,0,0,0,.39-.09.83.83,0,0,0,.24-.21.8.8,0,0,0,.17-.36,5.28,5.28,0,0,0,0-.84,5.35,5.35,0,0,0,0-.85.77.77,0,0,0-.17-.35.73.73,0,0,0-.24-.22,1.12,1.12,0,0,0-.39-.09,1,1,0,0,0-.37.09.8.8,0,0,0-.26.22.76.76,0,0,0-.16.35A5.35,5.35,0,0,0,12.44,50.53Z"/><path id="_Compound_Path_19" data-name="&lt;Compound Path&gt;" class="cls-3" d="M17,48.42h1.58a1.23,1.23,0,0,1,.9.32,1.06,1.06,0,0,1,.31.81,1.08,1.08,0,0,1-.12.5.93.93,0,0,1-.19.21,1.21,1.21,0,0,1-.29.19v0a.81.81,0,0,1,.5.36,1.16,1.16,0,0,1,.16.61,1.14,1.14,0,0,1-.33.86,1.06,1.06,0,0,1-.8.33H17Zm.62.57V50.2h.89A.64.64,0,0,0,19,50a.66.66,0,0,0,0-.86.67.67,0,0,0-.5-.17Zm0,1.77V52h.95a.63.63,0,0,0,.5-.19.65.65,0,0,0,.16-.44.6.6,0,0,0-.66-.64Z"/><path id="_Compound_Path_20" data-name="&lt;Compound Path&gt;" class="cls-3" d="M20.51,48.42h.62v2.72a.84.84,0,0,0,.24.65.85.85,0,0,0,1.18,0,.84.84,0,0,0,.24-.65V48.42h.62v2.79A1.42,1.42,0,0,1,22,52.67a1.47,1.47,0,0,1-1-.41,1.36,1.36,0,0,1-.42-1Z"/><path id="_Compound_Path_21" data-name="&lt;Compound Path&gt;" class="cls-3" d="M24.36,51.61a1.71,1.71,0,0,0,1.16.42c.53,0,.79-.2.8-.58s-.17-.51-.53-.57l-.54-.08a1.3,1.3,0,0,1-.8-.4,1.12,1.12,0,0,1-.28-.78,1.18,1.18,0,0,1,.35-.89,1.37,1.37,0,0,1,1-.34,2.2,2.2,0,0,1,1.32.43l-.34.53a1.87,1.87,0,0,0-1-.33.76.76,0,0,0-.48.15.54.54,0,0,0-.2.46.48.48,0,0,0,.13.33.73.73,0,0,0,.44.2l.46.07a1.25,1.25,0,0,1,.85.43,1.19,1.19,0,0,1,.27.78c0,.81-.5,1.22-1.43,1.23A2.32,2.32,0,0,1,24,52.09Z"/><path id="_Compound_Path_22" data-name="&lt;Compound Path&gt;" class="cls-3" d="M27.7,48.42h.62v4.21H27.7Z"/><path id="_Compound_Path_23" data-name="&lt;Compound Path&gt;" class="cls-3" d="M29.22,48.42h.58l1.85,3h0v-3h.62v4.21h-.59l-1.84-3h0v3h-.62Z"/><path id="_Compound_Path_24" data-name="&lt;Compound Path&gt;" class="cls-3" d="M33.27,48.42h2.6V49h-2v1.21h1.7v.56h-1.7V52h2v.6h-2.6Z"/><path id="_Compound_Path_25" data-name="&lt;Compound Path&gt;" class="cls-3" d="M36.61,51.61a1.7,1.7,0,0,0,1.15.42c.53,0,.8-.2.81-.58a.54.54,0,0,0-.53-.57l-.54-.08a1.3,1.3,0,0,1-.8-.4,1.12,1.12,0,0,1-.28-.78,1.15,1.15,0,0,1,.35-.89,1.37,1.37,0,0,1,1-.34,2.24,2.24,0,0,1,1.32.43l-.35.53a1.82,1.82,0,0,0-1-.33.72.72,0,0,0-.47.15.58.58,0,0,0-.21.46.49.49,0,0,0,.14.33.73.73,0,0,0,.44.2c.11,0,.26.05.46.07a1.27,1.27,0,0,1,.85.43,1.19,1.19,0,0,1,.27.78c0,.81-.5,1.22-1.43,1.23a2.28,2.28,0,0,1-1.56-.58Z"/><path id="_Compound_Path_26" data-name="&lt;Compound Path&gt;" class="cls-3" d="M40,51.61a1.71,1.71,0,0,0,1.16.42c.52,0,.79-.2.8-.58s-.17-.51-.53-.57l-.54-.08a1.3,1.3,0,0,1-.8-.4,1.12,1.12,0,0,1-.28-.78,1.18,1.18,0,0,1,.35-.89,1.37,1.37,0,0,1,1-.34,2.24,2.24,0,0,1,1.32.43l-.35.53a1.82,1.82,0,0,0-1-.33.73.73,0,0,0-.47.15.54.54,0,0,0-.2.46.48.48,0,0,0,.13.33.73.73,0,0,0,.44.2l.46.07a1.27,1.27,0,0,1,.85.43,1.19,1.19,0,0,1,.27.78c0,.81-.5,1.22-1.43,1.23a2.3,2.3,0,0,1-1.56-.58Z"/><path id="_Compound_Path_27" data-name="&lt;Compound Path&gt;" class="cls-3" d="M43.3,52h.59v.6l-.59.44Z"/><path id="_Compound_Path_28" data-name="&lt;Compound Path&gt;" class="cls-3" d="M46.86,49H45.75v-.57H48.6V49H47.48v3.64h-.62Z"/><path id="_Compound_Path_29" data-name="&lt;Compound Path&gt;" class="cls-3" d="M49.13,48.42h1.59a1.24,1.24,0,0,1,.83.28,1.23,1.23,0,0,1-.38,2.06l.94,1.87h-.73l-.84-1.8h-.8v1.8h-.61Zm.61,1.85h.94a.66.66,0,0,0,.52-.21.64.64,0,0,0,.17-.46.57.57,0,0,0-.2-.48.7.7,0,0,0-.46-.13h-1Z"/><path id="_Compound_Path_30" data-name="&lt;Compound Path&gt;" class="cls-3" d="M54.82,51.69H53.28l-.32.94h-.65l1.48-4.21h.52l1.48,4.21h-.65Zm-.17-.57-.59-1.84h0l-.59,1.84Z"/><path id="_Compound_Path_31" data-name="&lt;Compound Path&gt;" class="cls-3" d="M56.34,48.42h1.42a1.44,1.44,0,0,1,1.43,1.21,9,9,0,0,1,0,.9,6.71,6.71,0,0,1,0,.94,1.49,1.49,0,0,1-.07.25,1.13,1.13,0,0,1-.12.21,1.44,1.44,0,0,1-.49.49,1.38,1.38,0,0,1-.78.21H56.34ZM57,52h.74a.83.83,0,0,0,.76-.37.69.69,0,0,0,.13-.34,6.39,6.39,0,0,0,0-.77,7.17,7.17,0,0,0,0-.79.69.69,0,0,0-.16-.38.81.81,0,0,0-.73-.36H57Z"/><path id="_Compound_Path_32" data-name="&lt;Compound Path&gt;" class="cls-3" d="M60.06,48.42h2.6V49h-2v1.21h1.69v.56H60.68V52h2v.6h-2.6Z"/><path id="_Compound_Path_33" data-name="&lt;Compound Path&gt;" class="cls-3" d="M66.85,51.69H65.31l-.31.94h-.66l1.48-4.21h.52l1.48,4.21h-.65Zm-.17-.57-.59-1.84h0l-.59,1.84Z"/><path id="_Compound_Path_34" data-name="&lt;Compound Path&gt;" class="cls-3" d="M68.37,48.42H69l1.85,3h0v-3h.62v4.21h-.59l-1.84-3h0v3h-.62Z"/><path id="_Compound_Path_35" data-name="&lt;Compound Path&gt;" class="cls-3" d="M72.41,48.42h1.43a1.37,1.37,0,0,1,1.24.71,1.39,1.39,0,0,1,.19.5,9,9,0,0,1,0,.9,6.27,6.27,0,0,1,0,.94.92.92,0,0,1-.06.25,2.25,2.25,0,0,1-.12.21,1.38,1.38,0,0,1-.5.49,1.36,1.36,0,0,1-.77.21H72.41ZM73,52h.74a.83.83,0,0,0,.76-.37.81.81,0,0,0,.13-.34c0-.14,0-.39,0-.77s0-.63,0-.79a.77.77,0,0,0-.16-.38.83.83,0,0,0-.73-.36H73Z"/><path id="_Compound_Path_36" data-name="&lt;Compound Path&gt;" class="cls-3" d="M77.55,48.42h.62v4.21h-.62Z"/><path id="_Compound_Path_37" data-name="&lt;Compound Path&gt;" class="cls-3" d="M79.08,48.42h.58l1.85,3h0v-3h.61v4.21h-.58l-1.84-3h0v3h-.62Z"/><path id="_Compound_Path_38" data-name="&lt;Compound Path&gt;" class="cls-3" d="M82.7,48.42h.65l.93,3.21h0l.92-3.21h.66l-1.35,4.21H84Z"/><path id="_Compound_Path_39" data-name="&lt;Compound Path&gt;" class="cls-3" d="M86.41,48.42H89V49H87v1.21h1.69v.56H87V52h2v.6h-2.6Z"/><path id="_Compound_Path_40" data-name="&lt;Compound Path&gt;" class="cls-3" d="M89.75,51.61a1.71,1.71,0,0,0,1.16.42c.53,0,.79-.2.8-.58s-.17-.51-.53-.57l-.54-.08a1.3,1.3,0,0,1-.8-.4,1.12,1.12,0,0,1-.28-.78,1.18,1.18,0,0,1,.35-.89,1.37,1.37,0,0,1,1-.34,2.22,2.22,0,0,1,1.32.43l-.34.53a1.87,1.87,0,0,0-1-.33.76.76,0,0,0-.48.15.54.54,0,0,0-.2.46.48.48,0,0,0,.13.33.73.73,0,0,0,.44.2l.46.07a1.25,1.25,0,0,1,.85.43,1.19,1.19,0,0,1,.27.78c0,.81-.5,1.22-1.43,1.23a2.32,2.32,0,0,1-1.56-.58Z"/><path id="_Compound_Path_41" data-name="&lt;Compound Path&gt;" class="cls-3" d="M93.78,49H92.66v-.57h2.86V49H94.4v3.64h-.62Z"/><path id="_Compound_Path_42" data-name="&lt;Compound Path&gt;" class="cls-3" d="M97.46,48.42h.62v4.21h-.62Z"/><path id="_Compound_Path_43" data-name="&lt;Compound Path&gt;" class="cls-3" d="M99,48.42h.58l1.84,3h0v-3H102v4.21h-.58l-1.85-3h0v3H99Z"/><path id="_Compound_Path_44" data-name="&lt;Compound Path&gt;" class="cls-3" d="M106.54,51.69H105l-.31.94H104l1.48-4.21H106l1.48,4.21h-.65Zm-.18-.57-.59-1.84h0l-.59,1.84Z"/><path id="_Compound_Path_45" data-name="&lt;Compound Path&gt;" class="cls-3" d="M108.05,48.42h2.61V49h-2v1.25h1.69v.56h-1.69v1.8h-.62Z"/><path id="_Compound_Path_46" data-name="&lt;Compound Path&gt;" class="cls-3" d="M111.23,48.42h1.59a1.24,1.24,0,0,1,.83.28,1.13,1.13,0,0,1,.4.9,1.15,1.15,0,0,1-.78,1.16l.94,1.87h-.73l-.85-1.8h-.79v1.8h-.61Zm.61,1.85h.94a.68.68,0,0,0,.52-.21.69.69,0,0,0,.17-.46.57.57,0,0,0-.2-.48.7.7,0,0,0-.46-.13h-1Z"/><path id="_Compound_Path_47" data-name="&lt;Compound Path&gt;" class="cls-3" d="M114.83,48.42h.62v4.21h-.62Z"/><path id="_Compound_Path_48" data-name="&lt;Compound Path&gt;" class="cls-3" d="M119.11,51.46a1.56,1.56,0,0,1-.52.9,1.44,1.44,0,0,1-.92.31,1.38,1.38,0,0,1-.8-.25,1.33,1.33,0,0,1-.47-.51,1.42,1.42,0,0,1-.08-.18.7.7,0,0,1-.06-.23,11.9,11.9,0,0,1,0-2,1.16,1.16,0,0,1,.14-.4,1.36,1.36,0,0,1,.47-.52,1.31,1.31,0,0,1,.8-.24,1.34,1.34,0,0,1,1,.36,1.68,1.68,0,0,1,.47.88h-.66a.93.93,0,0,0-.27-.43.87.87,0,0,0-.51-.18,1,1,0,0,0-.37.09.71.71,0,0,0-.26.22.76.76,0,0,0-.16.35,5.35,5.35,0,0,0,0,.85,5.28,5.28,0,0,0,0,.84.78.78,0,0,0,.42.57.72.72,0,0,0,.37.09.83.83,0,0,0,.78-.57Z"/><path id="_Compound_Path_49" data-name="&lt;Compound Path&gt;" class="cls-3" d="M121.73,51.69h-1.54l-.32.94h-.65l1.48-4.21h.52l1.48,4.21h-.65Zm-.17-.57L121,49.28h0l-.59,1.84Z"/></g></svg>