<svg id="Layer_1" data-name="Layer 1" xmlns="http://www.w3.org/2000/svg" viewBox="0 0 283.46 283.46"><defs><style>.cls-1{fill:#196d71;}.cls-2,.cls-3{fill:#00c5c6;}.cls-3{font-size:5.91px;font-family:DINAlternate-Bold, DIN Alternate;font-weight:700;}</style></defs><title>logo3</title><g id="_Group_" data-name="&lt;Group&gt;"><g id="_Group_2" data-name="&lt;Group&gt;"><path id="_Compound_Path_" data-name="&lt;Compound Path&gt;" class="cls-1" d="M38.1,128.45l0,.33c0,.92.17,2.44.31,4,.08,1,.16,1.94.3,3l.14,1.14.06.47-.2,2.13.81-2.13c.44-.75.75-1.28,1.63-2.83,1.47-2.58,2.31-4.1,3.11-5.77l.14-.33H47.8l-.3.58c-1.2,2.33-2.28,4.27-3.58,6.41s-2.77,4.32-3.86,5.88l-.33.47h-3l-.11-.5c-.47-2.19-.81-4.08-1.06-6s-.52-4.47-.63-6.24l-.06-.64Z"/><path id="_Compound_Path_2" data-name="&lt;Compound Path&gt;" class="cls-1" d="M50.79,135.74a3.27,3.27,0,0,1,0,.5c0,2,1.27,3,3.6,3a9.22,9.22,0,0,0,3.94-.94l-.58,2.8a9.47,9.47,0,0,1-4,.89c-3.74,0-5.94-2.11-5.94-5.71,0-4.69,3-8.13,7.19-8.13,3,0,4.85,1.72,4.85,4.58a12.8,12.8,0,0,1-.39,3Zm5.91-2.3c0-.33.06-.53.06-.72a2,2,0,0,0-2.14-2.11c-1.52,0-2.69,1-3.27,2.83Z"/><path id="_Compound_Path_3" data-name="&lt;Compound Path&gt;" class="cls-1" d="M64.05,129a18.82,18.82,0,0,1,5.38-.8c3.1,0,4.88,1.22,4.88,3.44a10.11,10.11,0,0,1-.22,1.94l-1.75,8.18H69.12l1.81-8.4a3.5,3.5,0,0,0,.16-1.11c0-.95-.72-1.47-2.08-1.47a9.18,9.18,0,0,0-2.19.25l-2.3,10.73H61.33Z"/><path id="_Compound_Path_4" data-name="&lt;Compound Path&gt;" class="cls-1" d="M77.44,128.7h2.27l.84-3.63h2.91l-.78,3.63h3.11l-.5,2.3H82.21l-1.36,6a12,12,0,0,0-.14,1.41c0,.72.5,1.06,1.56,1.06a4.57,4.57,0,0,0,1-.11l-.5,2.3a9.38,9.38,0,0,1-2.08.22c-2.14,0-3.36-.83-3.36-2.27a9.59,9.59,0,0,1,.34-2.25L79.08,131H76.94Z"/><path id="_Compound_Path_5" data-name="&lt;Compound Path&gt;" class="cls-1" d="M91.31,128.45l-1.75,8.26a3.18,3.18,0,0,0-.14,1c0,1.06.78,1.64,2.25,1.64a8.4,8.4,0,0,0,1.8-.2l2.27-10.7h3.19l-2.72,12.84-.49.11a19.89,19.89,0,0,1-4.44.53c-3.27,0-5.08-1.28-5.08-3.55a10.41,10.41,0,0,1,.23-2l1.69-7.93Z"/><path id="_Compound_Path_6" data-name="&lt;Compound Path&gt;" class="cls-1" d="M103.09,129.28a13.13,13.13,0,0,1,5-1.05,9.27,9.27,0,0,1,3.27.53l-.67,2.71a4.45,4.45,0,0,0-2.52-.66,5.09,5.09,0,0,0-2.36.52l-2.24,10.46h-3.19Z"/><path id="_Compound_Path_7" data-name="&lt;Compound Path&gt;" class="cls-1" d="M114.57,135.74a2.19,2.19,0,0,1,0,.5c0,2,1.28,3,3.61,3a9.25,9.25,0,0,0,3.94-.94l-.59,2.8a9.4,9.4,0,0,1-4,.89c-3.74,0-5.93-2.11-5.93-5.71,0-4.69,3-8.13,7.18-8.13,3,0,4.86,1.72,4.86,4.58a13.38,13.38,0,0,1-.39,3Zm5.91-2.3c0-.33,0-.53,0-.72a2,2,0,0,0-2.13-2.11c-1.53,0-2.69,1-3.27,2.83Z"/><path id="_Compound_Path_8" data-name="&lt;Compound Path&gt;" class="cls-2" d="M128,128.45h3.19l-2.86,13.34h-3.19Zm1.22-6.13h3.33l-.75,3.5h-3.33Z"/><path id="_Compound_Path_9" data-name="&lt;Compound Path&gt;" class="cls-2" d="M135.31,129a18.82,18.82,0,0,1,5.38-.8c3.11,0,4.88,1.22,4.88,3.44a10.11,10.11,0,0,1-.22,1.94l-1.75,8.18h-3.21l1.8-8.4a3.24,3.24,0,0,0,.16-1.11c0-.95-.72-1.47-2.07-1.47a9.2,9.2,0,0,0-2.2.25l-2.3,10.73h-3.19Z"/><path id="_Compound_Path_10" data-name="&lt;Compound Path&gt;" class="cls-1" d="M148.54,137.85h3.8l-.86,3.94h-3.77Z"/><path id="_Compound_Path_11" data-name="&lt;Compound Path&gt;" class="cls-1" d="M165.67,141.6A20.33,20.33,0,0,1,162,142c-4.05,0-6.08-1.7-6.08-5.08a8,8,0,0,1,4-6.93,11.74,11.74,0,0,1,6.26-1.53,19.79,19.79,0,0,1,2.53.17ZM165,131h-.33a5.43,5.43,0,0,0-5.55,5.69,2.56,2.56,0,0,0,2.89,2.85,5.16,5.16,0,0,0,1.08-.16Z"/><path id="_Compound_Path_12" data-name="&lt;Compound Path&gt;" class="cls-1" d="M171,128.7h2.16l.11-.5c.64-2.88,1.36-4.55,2.39-5.57a6.15,6.15,0,0,1,4.6-1.75,7,7,0,0,1,2,.28l-.67,2.49a3.7,3.7,0,0,0-1.22-.19c-2.13,0-3,1.08-3.88,4.69l-.11.55h3.33l-.5,2.3h-3.3l-.11.5c-.17.8-.36,1.75-.56,2.8l-.61,3.27c-.52,2.78-.77,3.91-1.22,5.83-.3,1.3-.5,2-.8,3.13l-.11.31h-3.14l.09-.34c.3-1.05.58-2.08.8-3.1.17-.72.39-1.72.64-2.94l.33-1.72c.11-.58.17-.81.22-1.17l.61-3.27c.11-.55.2-1.14.31-1.69s.14-.78.22-1.16l.08-.45h-2.16Z"/><path id="_Compound_Path_13" data-name="&lt;Compound Path&gt;" class="cls-1" d="M182.09,129.28a13.13,13.13,0,0,1,5-1.05,9.27,9.27,0,0,1,3.27.53l-.67,2.71a4.45,4.45,0,0,0-2.52-.66,5.09,5.09,0,0,0-2.36.52l-2.24,10.46h-3.19Z"/><path id="_Compound_Path_14" data-name="&lt;Compound Path&gt;" class="cls-1" d="M192.71,128.45h3.19L193,141.79h-3.19Zm1.22-6.13h3.33l-.75,3.5h-3.33Z"/><path id="_Compound_Path_15" data-name="&lt;Compound Path&gt;" class="cls-1" d="M208.79,131.61a5.31,5.31,0,0,0-2.83-.8,4.72,4.72,0,0,0-4.85,5.07c0,2.22,1.28,3.41,3.52,3.41a6.3,6.3,0,0,0,3.16-.83l-.58,2.91a7.49,7.49,0,0,1-3.27.67c-3.8,0-6.05-2.14-6.05-5.77a7.68,7.68,0,0,1,8-8,8.1,8.1,0,0,1,3.55.77Z"/><path id="_Compound_Path_16" data-name="&lt;Compound Path&gt;" class="cls-1" d="M219.72,141.6A20.51,20.51,0,0,1,216,142c-4.05,0-6.07-1.7-6.07-5.08a8,8,0,0,1,4-6.93,11.75,11.75,0,0,1,6.27-1.53,19.76,19.76,0,0,1,2.52.17ZM219,131h-.33a5.43,5.43,0,0,0-5.55,5.69,2.56,2.56,0,0,0,2.89,2.85,5.16,5.16,0,0,0,1.08-.16Z"/></g><g id="_Group_3" data-name="&lt;Group&gt;"><g id="_Group_4" data-name="&lt;Group&gt;"><path id="_Path_" data-name="&lt;Path&gt;" class="cls-1" d="M238.36,125.14l-8.81-2.2V124a7.38,7.38,0,0,1,2,6h-.13v1.08h0a1.87,1.87,0,0,0,1.46,1.85c2.12-.71,5.43-6.7,5.43-6.7Z"/><path id="_Path_2" data-name="&lt;Path&gt;" class="cls-1" d="M246.6,119.85l-4.7-.58h-.23a30.56,30.56,0,0,0-13.49,1l-2.93.2,0,1.07a.53.53,0,0,0,.59.62,27.31,27.31,0,0,1,16,2.86.55.55,0,0,0,.61-.08l3.91-3.61a.5.5,0,0,0,.14-.55Z"/><path id="_Path_3" data-name="&lt;Path&gt;" class="cls-1" d="M239.12,116.8a.76.76,0,0,0,.85-.67h0l0-1.2-1-.62-4.38-1.2a22.85,22.85,0,0,0-11.78-1.49l-.41,0-2.76.33,0,1.23h0a1,1,0,0,0,0,.17l1.83,6.93a.77.77,0,0,0,1.14.48C225,119.4,231.6,116.11,239.12,116.8Z"/><path id="_Path_4" data-name="&lt;Path&gt;" class="cls-1" d="M239,130.67v-1.11l-.39,0v-.05l0,.05-.44,0-1,1.38v1.07l1.27-.46a1,1,0,0,0,.62-.76l0,0v-.15Z"/></g><path class="cls-2" d="M222.65,119.64c2.31-1.31,8.95-4.6,16.47-3.91a.78.78,0,0,0,.45-1.46c-4.61-2.46-12.6-5.67-19.43-3a.81.81,0,0,0-.46.94l1.83,6.93A.77.77,0,0,0,222.65,119.64Z"/><path class="cls-2" d="M229.55,122.94s2.91-1.63,8.81,2.2c0,0-3.31,6-5.43,6.7h0a1.87,1.87,0,0,1-1.44-2.16A7.52,7.52,0,0,0,229.55,122.94Z"/><path class="cls-2" d="M237.47,130.12a5.6,5.6,0,0,1,1.12-1.65h0l.32.78a1,1,0,0,1-.57,1.29l-1.27.46Z"/><path class="cls-2" d="M225.6,120a30.38,30.38,0,0,1,20.64-.71.52.52,0,0,1,.19.89l-3.91,3.61a.53.53,0,0,1-.61.08,27.31,27.31,0,0,0-16-2.86A.53.53,0,0,1,225.6,120Z"/></g><text class="cls-3" transform="translate(37.25 154.38)">DO BUSINESS, TRADE AND INVEST IN AFRICA</text></g></svg>